{
  "accessors": [
    {
      "bufferView": 3,
      "componentType": 5126,
      "count": 3695,
      "max": [
        31.575551986694336,
        23.090721130371094,
        14.934820175170898
      ],
      "min": [
        -20.225513458251953,
        3.562856912612915,
        -13.379293441772461
      ],
      "type": "VEC3"
    },
    {
      "bufferView": 3,
      "byteOffset": 44340,
      "componentType": 5126,
      "count": 3695,
      "max": [
        0.9998107552528381,
        0.9988938570022583,
        0.999794602394104
      ],
      "min": [
        -0.9962875843048096,
        -0.9998716115951538,
        -0.9940100908279419
      ],
      "type": "VEC3"
    },
    {
      "bufferView": 2,
      "componentType": 5126,
      "count": 3695,
      "max": [
        0.0,
        0.0
      ],
      "min": [
        0.0,
        0.0
      ],
      "type": "VEC2"
    },
    {
      "bufferView": 1,
      "componentType": 5125,
      "count": 22158,
      "type": "SCALAR"
    },
    {
      "bufferView": 5,
      "componentType": 5126,
      "count": 10,
      "max": [
        1.0,
        0.06764092296361923,
        0.9711001515388489,
        0.0,
        0.0187557190656662,
        1.0,
        5.6459615734638646e-05,
        0.0,
        0.9473230838775635,
        0.14383509755134583,
        1.0,
        0.0,
        39.42519760131836,
        0.0,
        5.154094696044922,
        1.0
      ],
      "min": [
        0.235965758562088,
        -0.0187557190656662,
        -0.95818030834198,
        0.0,
        -0.15022800862789154,
        0.9886513948440552,
        -0.010965829715132713,
        0.0,
        -0.9600790143013,
        -0.14588963985443115,
        0.2386723756790161,
        0.0,
        -13.00563907623291,
        -12.759148597717285,
        -6.040101528167725,
        1.0
      ],
      "type": "MAT4"
    },
    {
      "bufferView": 0,
      "componentType": 5123,
      "count": 3695,
      "type": "VEC4"
    },
    {
      "bufferView": 4,
      "componentType": 5126,
      "count": 3695,
      "max": [
        1.0,
        0.49900367856025696,
        0.023948650807142258,
        0.023948650807142258
      ],
      "min": [
        0.5009962916374207,
        0.0,
        0.0,
        0.0
      ],
      "type": "VEC4"
    },
    {
      "bufferView": 6,
      "componentType": 5126,
      "count": 235,
      "max": [
        4.958333492279053
      ],
      "min": [
        0.0416666679084301
      ],
      "type": "SCALAR"
    },
    {
      "bufferView": 7,
      "componentType": 5126,
      "count": 235,
      "max": [
        8.858245849609375,
        0.0,
        8.881784197001252e-16
      ],
      "min": [
        8.858245849609375,
        -7.105427357601002e-15,
        -8.881784197001252e-16
      ],
      "type": "VEC3"
    },
    {
      "bufferView": 6,
      "byteOffset": 940,
      "componentType": 5126,
      "count": 236,
      "max": [
        4.958333492279053
      ],
      "min": [
        0.0416666679084301
      ],
      "type": "SCALAR"
    },
    {
      "bufferView": 8,
      "componentType": 5126,
      "count": 236,
      "max": [
        0.0002451765176374465,
        0.054009996354579926,
        -0.004526976495981216,
        0.9999896883964539
      ],
      "min": [
        -0.0003358646063134074,
        -0.0739877000451088,
        -0.004539418499916792,
        0.9972488284111023
      ],
      "type": "VEC4"
    },
    {
      "bufferView": 6,
      "byteOffset": 1884,
      "componentType": 5126,
      "count": 234,
      "max": [
        4.958333492279053
      ],
      "min": [
        0.0416666679084301
      ],
      "type": "SCALAR"
    },
    {
      "bufferView": 7,
      "byteOffset": 2820,
      "componentType": 5126,
      "count": 234,
      "max": [
        19.22698402404785,
        2.474465077284549e-12,
        6.661338147750939e-16
      ],
      "min": [
        19.22698402404785,
        2.4709123636057484e-12,
        -7.771561172376096e-16
      ],
      "type": "VEC3"
    },
    {
      "bufferView": 6,
      "byteOffset": 2820,
      "componentType": 5126,
      "count": 236,
      "max": [
        4.958333492279053
      ],
      "min": [
        0.0416666679084301
      ],
      "type": "SCALAR"
    },
    {
      "bufferView": 8,
      "byteOffset": 3776,
      "componentType": 5126,
      "count": 236,
      "max": [
        0.00539373466745019,
        0.1255442351102829,
        -0.04256695136427879,
        0.9990783929824829
      ],
      "min": [
        -0.005518894176930189,
        -0.1284574419260025,
        -0.042923226952552795,
        0.9907857179641724
      ],
      "type": "VEC4"
    },
    {
      "bufferView": 6,
      "byteOffset": 3764,
      "componentType": 5126,
      "count": 206,
      "max": [
        4.958333492279053
      ],
      "min": [
        0.0416666679084301
      ],
      "type": "SCALAR"
    },
    {
      "bufferView": 7,
      "byteOffset": 5628,
      "componentType": 5126,
      "count": 206,
      "max": [
        7.220351219177246,
        -1.1560126543045044,
        1.7763568394002505e-15
      ],
      "min": [
        7.220351219177246,
        -1.1560126543045044,
        -8.881784197001252e-16
      ],
      "type": "VEC3"
    },
    {
      "bufferView": 6,
      "byteOffset": 4588,
      "componentType": 5126,
      "count": 236,
      "max": [
        4.958333492279053
      ],
      "min": [
        0.0416666679084301
      ],
      "type": "SCALAR"
    },
    {
      "bufferView": 8,
      "byteOffset": 7552,
      "componentType": 5126,
      "count": 236,
      "max": [
        0.12278556078672409,
        -0.6063459515571594,
        0.10733675211668015,
        0.7879234552383423
      ],
      "min": [
        -0.07606805115938187,
        -0.61577308177948,
        -0.047955792397260666,
        0.7782976031303406
      ],
      "type": "VEC4"
    },
    {
      "bufferView": 6,
      "byteOffset": 5532,
      "componentType": 5126,
      "count": 236,
      "max": [
        4.958333492279053
      ],
      "min": [
        0.0416666679084301
      ],
      "type": "SCALAR"
    },
    {
      "bufferView": 8,
      "byteOffset": 11328,
      "componentType": 5126,
      "count": 236,
      "max": [
        0.1296415477991104,
        0.6157569289207458,
        0.15186208486557007,
        0.7879359722137451
      ],
      "min": [
        -0.04078380763530731,
        0.6019548773765564,
        -0.06647152453660965,
        0.7731631994247437
      ],
      "type": "VEC4"
    },
    {
      "bufferView": 6,
      "byteOffset": 6476,
      "componentType": 5126,
      "count": 205,
      "max": [
        4.958333492279053
      ],
      "min": [
        0.0416666679084301
      ],
      "type": "SCALAR"
    },
    {
      "bufferView": 7,
      "byteOffset": 8100,
      "componentType": 5126,
      "count": 205,
      "max": [
        8.154131889343262,
        -1.1560126543045044,
        6.217248937900877e-15
      ],
      "min": [
        8.154131889343262,
        -1.1560126543045044,
        2.6645352591003757e-15
      ],
      "type": "VEC3"
    },
    {
      "bufferView": 6,
      "byteOffset": 7296,
      "componentType": 5126,
      "count": 236,
      "max": [
        4.958333492279053
      ],
      "min": [
        0.0416666679084301
      ],
      "type": "SCALAR"
    },
    {
      "bufferView": 8,
      "byteOffset": 15104,
      "componentType": 5126,
      "count": 236,
      "max": [
        0.10685782879590988,
        0.5986895561218262,
        0.07691291719675064,
        0.8009810447692871
      ],
      "min": [
        -0.087826207280159,
        0.5937286019325256,
        -0.06860963255167007,
        0.7938212156295776
      ],
      "type": "VEC4"
    },
    {
      "bufferView": 6,
      "byteOffset": 8240,
      "componentType": 5126,
      "count": 236,
      "max": [
        4.958333492279053
      ],
      "min": [
        0.0416666679084301
      ],
      "type": "SCALAR"
    },
    {
      "bufferView": 8,
      "byteOffset": 18880,
      "componentType": 5126,
      "count": 236,
      "max": [
        0.039651237428188324,
        -0.5899366736412048,
        0.12194687128067017,
        0.8009957075119019
      ],
      "min": [
        -0.10188516974449158,
        -0.5986700654029846,
        -0.06757212430238724,
        0.7916584610939026
      ],
      "type": "VEC4"
    },
    {
      "bufferView": 6,
      "byteOffset": 9184,
      "componentType": 5126,
      "count": 1,
      "max": [
        0.0416666679084301
      ],
      "min": [
        0.0416666679084301
      ],
      "type": "SCALAR"
    },
    {
      "bufferView": 7,
      "byteOffset": 10560,
      "componentType": 5126,
      "count": 1,
      "max": [
        34.60894012451172,
        2.4158453015843406e-13,
        0.0
      ],
      "min": [
        34.60894012451172,
        2.4158453015843406e-13,
        0.0
      ],
      "type": "VEC3"
    },
    {
      "bufferView": 6,
      "byteOffset": 9188,
      "componentType": 5126,
      "count": 236,
      "max": [
        4.958333492279053
      ],
      "min": [
        0.0416666679084301
      ],
      "type": "SCALAR"
    },
    {
      "bufferView": 8,
      "byteOffset": 22656,
      "componentType": 5126,
      "count": 236,
      "max": [
        1.7612615920370445e-05,
        0.061048537492752075,
        -0.00028796374681405723,
        0.9999999403953552
      ],
      "min": [
        -1.7612615920370445e-05,
        -0.061048537492752075,
        -0.0002885018475353718,
        0.9981347322463989
      ],
      "type": "VEC4"
    }
  ],
  "animations": [
    {
      "channels": [
        {
          "sampler": 0,
          "target": {
            "node": 11,
            "path": "translation"
          }
        },
        {
          "sampler": 1,
          "target": {
            "node": 11,
            "path": "rotation"
          }
        },
        {
          "sampler": 2,
          "target": {
            "node": 10,
            "path": "translation"
          }
        },
        {
          "sampler": 3,
          "target": {
            "node": 10,
            "path": "rotation"
          }
        },
        {
          "sampler": 4,
          "target": {
            "node": 14,
            "path": "translation"
          }
        },
        {
          "sampler": 5,
          "target": {
            "node": 14,
            "path": "rotation"
          }
        },
        {
          "sampler": 6,
          "target": {
            "node": 13,
            "path": "rotation"
          }
        },
        {
          "sampler": 7,
          "target": {
            "node": 16,
            "path": "translation"
          }
        },
        {
          "sampler": 8,
          "target": {
            "node": 16,
            "path": "rotation"
          }
        },
        {
          "sampler": 9,
          "target": {
            "node": 15,
            "path": "rotation"
          }
        },
        {
          "sampler": 10,
          "target": {
            "node": 9,
            "path": "translation"
          }
        },
        {
          "sampler": 11,
          "target": {
            "node": 9,
            "path": "rotation"
          }
        }
      ],
      "name": "Take 001",
      "samplers": [
        {
          "input": 7,
          "interpolation": "LINEAR",
          "output": 8
        },
        {
          "input": 9,
          "interpolation": "LINEAR",
          "output": 10
        },
        {
          "input": 11,
          "interpolation": "LINEAR",
          "output": 12
        },
        {
          "input": 13,
          "interpolation": "LINEAR",
          "output": 14
        },
        {
          "input": 15,
          "interpolation": "LINEAR",
          "output": 16
        },
        {
          "input": 17,
          "interpolation": "LINEAR",
          "output": 18
        },
        {
          "input": 19,
          "interpolation": "LINEAR",
          "output": 20
        },
        {
          "input": 21,
          "interpolation": "LINEAR",
          "output": 22
        },
        {
          "input": 23,
          "interpolation": "LINEAR",
          "output": 24
        },
        {
          "input": 25,
          "interpolation": "LINEAR",
          "output": 26
        },
        {
          "input": 27,
          "interpolation": "LINEAR",
          "output": 28
        },
        {
          "input": 29,
          "interpolation": "LINEAR",
          "output": 30
        }
      ]
    }
  ],
  "asset": {
    "extras": {
      "author": "Matt Rafferty (https://sketchfab.com/Matt-AeroLab)",
      "license": "CC-BY-4.0 (http://creativecommons.org/licenses/by/4.0/)",
      "source": "https://sketchfab.com/3d-models/animation-shark-swim-cycle-a8cad91445b74818b855f1b2fc2254ef",
      "title": "(Animation) Shark Swim Cycle"
    },
    "generator": "Sketchfab-12.67.0",
    "version": "2.0"
  },
  "bufferViews": [
    {
      "buffer": 0,
      "byteLength": 29560,
      "byteStride": 8,
      "name": "shortBufferViews",
      "target": 34962
    },
    {
      "buffer": 0,
      "byteLength": 88632,
      "byteOffset": 29560,
      "name": "floatBufferViews",
      "target": 34963
    },
    {
      "buffer": 0,
      "byteLength": 29560,
      "byteOffset": 118192,
      "byteStride": 8,
      "name": "floatBufferViews",
      "target": 34962
    },
    {
      "buffer": 0,
      "byteLength": 88680,
      "byteOffset": 147752,
      "byteStride": 12,
      "name": "floatBufferViews",
      "target": 34962
    },
    {
      "buffer": 0,
      "byteLength": 59120,
      "byteOffset": 236432,
      "byteStride": 16,
      "name": "floatBufferViews",
      "target": 34962
    },
    {
      "buffer": 0,
      "byteLength": 640,
      "byteOffset": 295552,
      "name": "floatBufferViews"
    },
    {
      "buffer": 0,
      "byteLength": 10132,
      "byteOffset": 296192,
      "name": "floatBufferViews"
    },
    {
      "buffer": 0,
      "byteLength": 10572,
      "byteOffset": 306324,
      "byteStride": 12,
      "name": "floatBufferViews"
    },
    {
      "buffer": 0,
      "byteLength": 26432,
      "byteOffset": 316896,
      "byteStride": 16,
      "name": "floatBufferViews"
    }
  ],
  "buffers": [
    {
      "byteLength": 343328,
      "uri": "scene.bin"
    }
  ],
  "images": [
    {
      "uri": "textures/lambert1_baseColor.jpeg"
    }
  ],
  "materials": [
    {
      "doubleSided": true,
      "name": "lambert1",
      "pbrMetallicRoughness": {
        "baseColorTexture": {
          "index": 0
        },
        "metallicFactor": 0.0
      }
    }
  ],
  "meshes": [
    {
      "name": "Shark_Retopo2:polySurface1_lambert1_0",
      "primitives": [
        {
          "attributes": {
            "JOINTS_0": 5,
            "NORMAL": 1,
            "POSITION": 0,
            "TEXCOORD_0": 2,
            "WEIGHTS_0": 6
          },
          "indices": 3,
          "material": 0,
          "mode": 4
        }
      ]
    }
  ],
  "nodes": [
    {
      "children": [
        1
      ],
      "matrix": [
        1.0,
        0.0,
        0.0,
        0.0,
        0.0,
        2.220446049250313e-16,
        -1.0,
        0.0,
        0.0,
        1.0,
        2.220446049250313e-16,
        0.0,
        0.0,
        0.0,
        0.0,
        1.0
      ],
      "name": "Sketchfab_model"
    },
    {
      "children": [
        2
      ],
      "matrix": [
        1.0,
        0.0,
        0.0,
        0.0,
        0.0,
        0.0,
        1.0,
        0.0,
        0.0,
        -1.0,
        0.0,
        0.0,
        0.0,
        0.0,
        0.0,
        1.0
      ],
      "name": "c66a5d2066f74176bd465c9937a33f59.fbx"
    },
    {
      "children": [
        3
      ],
      "name": "Object_2"
    },
    {
      "children": [
        4
      ],
      "name": "RootNode"
    },
    {
      "children": [
        5,
        7,
        6,
        17
      ],
      "name": "Object_4"
    },
    {
      "children": [
        8
      ],
      "name": "_rootJoint"
    },
    {
      "matrix": [
        1.0,
        0.0,
        0.0,
        0.0,
        0.0,
        1.0,
        0.0,
        0.0,
        0.0,
        0.0,
        1.0,
        0.0,
        0.0,
        1.7763568394002505e-15,
        -0.4039609700247704,
        1.0
      ],
      "name": "Object_6"
    },
    {
      "mesh": 0,
      "name": "Object_7",
      "skin": 0
    },
    {
      "children": [
        9
      ],
      "name": "joint1_00",
      "rotation": [
        0.0,
        0.0,
        0.009378272108733654,
        0.9999560117721558
      ],
      "translation": [
        -39.635257720947266,
        10.827953338623047,
        1.0676889419555664
      ]
    },
    {
      "children": [
        10,
        13,
        15
      ],
      "name": "joint2_01",
      "rotation": [
        -1.2112646800233051e-05,
        -0.041984640061855316,
        -0.00028824748005717993,
        0.9991182088851929
      ],
      "translation": [
        34.60894012451172,
        2.433608869978343e-13,
        0.0
      ]
    },
    {
      "children": [
        11
      ],
      "name": "joint3_02",
      "rotation": [
        -9.321998368250206e-05,
        -0.002169782528653741,
        -0.042923130095005035,
        0.9990761280059814
      ],
      "translation": [
        19.22698402404785,
        2.4726887204451486e-12,
        2.220446049250313e-16
      ]
    },
    {
      "children": [
        12
      ],
      "name": "joint4_03",
      "rotation": [
        -1.5659001292078756e-05,
        -0.0034495254512876272,
        -0.004539391957223415,
        0.9999838471412659
      ],
      "translation": [
        8.858245849609375,
        -7.105427357601002e-15,
        2.220446049250313e-16
      ]
    },
    {
      "name": "joint5_04",
      "rotation": [
        4.875315676423227e-19,
        1.8723557898151694e-20,
        0.038376521319150925,
        0.999263346195221
      ],
      "translation": [
        6.510332107543945,
        0.0,
        4.440892098500626e-16
      ]
    },
    {
      "children": [
        14
      ],
      "name": "joint6_05",
      "rotation": [
        0.12494514137506485,
        0.6029471755027771,
        0.14583036303520203,
        0.7743235230445862
      ],
      "translation": [
        1.014086127281189,
        -0.018437929451465607,
        -6.232430934906006
      ]
    },
    {
      "name": "joint7_06",
      "rotation": [
        0.11726547032594681,
        -0.6070916056632996,
        0.10303593426942825,
        0.7791483998298645
      ],
      "translation": [
        7.220351219177246,
        -1.1560126543045044,
        8.881784197001252e-16
      ]
    },
    {
      "children": [
        16
      ],
      "name": "joint8_07",
      "rotation": [
        -0.09796319156885147,
        -0.5906006097793579,
        0.11668414622545242,
        0.7924512028694153
      ],
      "translation": [
        0.7912265062332153,
        -0.01438593678176403,
        5.902060508728027
      ]
    },
    {
      "name": "joint9_08",
      "rotation": [
        -0.08239211142063141,
        0.5942395925521851,
        0.07286018878221512,
        0.7967323660850525
      ],
      "translation": [
        8.154131889343262,
        -1.1560126543045044,
        3.552713678800501e-15
      ]
    },
    {
      "name": "Shark_Retopo2:polySurface1",
      "translation": [
        0.0,
        0.0,
        -0.4039609730243683
      ]
    }
  ],
  "samplers": [
    {
      "magFilter": 9729,
      "minFilter": 9987,
      "wrapS": 10497,
      "wrapT": 10497
    }
  ],
  "scene": 0,
  "scenes": [
    {
      "name": "Sketchfab_Scene",
      "nodes": [
        0
      ]
    }
  ],
  "skins": [
    {
      "inverseBindMatrices": 4,
      "joints": [
        5,
        8,
        9,
        10,
        11,
        12,
        13,
        14,
        15,
        16
      ],
      "skeleton": 5
    }
  ],
  "textures": [
    {
      "sampler": 0,
      "source": 0
    }
  ]
}
